<svg xmlns="http://www.w3.org/2000/svg" viewBox="0 0 1912.7 1592.32"><defs><style>.cls-1{isolation:isolate;}.cls-2{mix-blend-mode:overlay;}.cls-10,.cls-11,.cls-12,.cls-13,.cls-14,.cls-15,.cls-16,.cls-17,.cls-3,.cls-4,.cls-5,.cls-6,.cls-7,.cls-8,.cls-9{fill:none;stroke:#fff;stroke-linecap:round;stroke-miterlimit:10;stroke-dasharray:0 4;}.cls-3{stroke-width:0.25px;}.cls-4{stroke-width:0.38px;}.cls-5{stroke-width:0.5px;}.cls-6{stroke-width:0.63px;}.cls-7{stroke-width:0.75px;}.cls-8{stroke-width:0.88px;}.cls-10{stroke-width:1.13px;}.cls-11{stroke-width:1.25px;}.cls-12{stroke-width:1.38px;}.cls-13{stroke-width:1.5px;}.cls-14{stroke-width:1.63px;}.cls-15{stroke-width:1.75px;}.cls-16{stroke-width:1.88px;}.cls-17{stroke-width:2px;}</style></defs><title>Asset 1</title><g class="cls-1"><g id="Layer_2" data-name="Layer 2"><g id="Layer_1-2" data-name="Layer 1"><g class="cls-2"><path class="cls-3" d="M.13,239.49S1163.18,1713.81,1912.19,898.34"/><path class="cls-4" d="M1.66,222.45S1155.57,1681.16,1912.15,859.77"/><path class="cls-5" d="M3.18,205.42S1148,1648.51,1912.12,821.18"/><path class="cls-6" d="M4.71,188.39S1140.37,1615.87,1912.08,782.61"/><path class="cls-7" d="M6.24,171.35S1132.78,1583.22,1912,744"/><path class="cls-8" d="M7.76,154.32S1125.18,1550.57,1912,705.44"/><path class="cls-9" d="M9.29,137.28S1117.58,1517.93,1912,666.87"/><path class="cls-10" d="M10.81,120.24S1110,1485.28,1911.94,628.29"/><path class="cls-11" d="M12.34,103.21s1090.05,1349.41,1899.57,486.5"/><path class="cls-12" d="M13.87,86.18s1080.92,1333.8,1898,465"/><path class="cls-13" d="M15.4,69.14S1087.19,1387.33,1911.84,512.55"/><path class="cls-14" d="M16.92,52.11S1079.59,1354.69,1911.8,474"/><path class="cls-15" d="M18.45,35.07S1072,1322,1911.77,435.39"/><path class="cls-16" d="M20,18S1064.39,1289.39,1911.73,396.81"/><path class="cls-17" d="M21.5,1S1056.8,1256.74,1911.7,358.23"/></g><g class="cls-2"><path class="cls-3" d="M1402.09,1476S739.53,762.31,311.93,1156.44"/><path class="cls-4" d="M1401.21,1484.21S743.85,778.1,311.93,1175.1"/><path class="cls-5" d="M1400.33,1492.44S748.16,793.9,311.93,1193.76"/><path class="cls-6" d="M1399.45,1500.68s-647-691-1087.52-288.26"/><path class="cls-7" d="M1398.57,1508.92S756.8,825.49,311.93,1231.09"/><path class="cls-8" d="M1397.69,1517.16S761.11,841.28,311.93,1249.75"/><path class="cls-9" d="M1396.81,1525.4s-631.38-668.32-1084.88-257"/><path class="cls-10" d="M1395.93,1533.64s-626.18-660.77-1084-246.57"/><path class="cls-11" d="M1395.05,1541.88s-621-653.21-1083.12-236.15"/><path class="cls-12" d="M1394.17,1550.12S778.38,904.46,311.93,1324.39"/><path class="cls-13" d="M1393.29,1558.36S782.7,920.26,311.93,1343.06"/><path class="cls-14" d="M1392.42,1566.6S787,936.06,311.93,1361.72"/><path class="cls-15" d="M1391.54,1574.84s-600.21-623-1079.61-194.46"/><path class="cls-16" d="M1390.66,1583.08s-595-615.43-1078.73-184"/><path class="cls-17" d="M1389.78,1591.32S800,983.44,311.93,1417.7"/></g></g></g></g></svg>