<svg xmlns="http://www.w3.org/2000/svg" width="479.274" height="289.18" viewBox="0 0 479.274 289.18">
  <g id="Group_3466" data-name="Group 3466" transform="translate(-172 -3431.681)">
    <g id="Group_3467" data-name="Group 3467" transform="translate(398.567 3487.71)">
      <path id="Path_13117" data-name="Path 13117" d="M124.581,773.955c50.1-1.755,82.845-25.752,101.493-47.127,20.233-23.2,28.72-46.333,28.807-46.564l-.791-.934c-.082.228-8.49,23.114-28.573,46.115-18.539,21.234-51.085,45.829-100.936,47.574Z" transform="translate(-4.285 -676.466)" fill="#bababa"/>
      <path id="Path_13119" data-name="Path 13119" d="M124.581,773.955c50.1-1.755,82.845-25.752,101.493-47.127,20.233-23.2,28.72-46.333,28.807-46.564l-.791-.934c-.082.228-8.49,23.114-28.573,46.115-18.539,21.234-51.085,45.829-100.936,47.574Z" transform="translate(-4.285 -600.088)" fill="#bababa"/>
      <path id="Path_13120" data-name="Path 13120" d="M124.581,773.955c50.1-1.755,82.845-25.752,101.493-47.127,20.233-23.2,28.72-46.333,28.807-46.564l-.791-.934c-.082.228-8.49,23.114-28.573,46.115-18.539,21.234-51.085,45.829-100.936,47.574Z" transform="translate(-124.581 -601.042)" fill="#bababa"/>
      <path id="Path_13118" data-name="Path 13118" d="M124.581,773.955c42.913-1.755,70.953-25.752,86.925-47.127a173.607,173.607,0,0,0,24.672-46.564l-.677-.934a171.664,171.664,0,0,1-24.472,46.115c-15.878,21.234-43.752,45.829-86.447,47.574Z" transform="translate(-107.787 -679.33)" fill="#bababa"/>
    </g>
    <rect id="Rectangle_441" data-name="Rectangle 441" width="23.31" height="1.718" transform="translate(523.713 3657.895)" fill="#5e5d5d"/>
    <path id="Path_5654" data-name="Path 5654" d="M271.473,862.971l-20.582-112V686.669H156.637v64.305h.148l-22.817,112Z" transform="translate(175.129 2843.249)" fill="#9dafc2"/>
    <path id="Path_5655" data-name="Path 5655" d="M218.682,750.976V686.667H182.89v64.308l20.581,112h35.793Z" transform="translate(203.547 2843.247)" fill="#8797a7"/>
    <path id="Path_5656" data-name="Path 5656" d="M192.37,750.761V686.449H156.58v64.311h.146L133.909,862.753H169.7L192.52,750.761Z" transform="translate(178.814 2843.104)" fill="#f3f5f8"/>
    <rect id="Rectangle_442" data-name="Rectangle 442" width="102.008" height="10.476" transform="translate(327.209 3511.119)" fill="#09b7b7"/>
    <rect id="Rectangle_443" data-name="Rectangle 443" width="95.207" height="11.2" transform="translate(330.997 3521.274)" fill="#545e68"/>
    <path id="Path_5657" data-name="Path 5657" d="M172.189,804.848l-.818-81.272-24.786.5.13,11.806-1.413.014-.145-13.166,27.614-.561.818,81.287,23.853-.256.015,1.375Z" transform="translate(186.193 2866.559)" fill="#bababa"/>
    <path id="Path_5658" data-name="Path 5658" d="M202.791,804.31l-1.077-80.754H177.5l.129,11.788-1.395.016-.143-13.183h27l1.077,80.741,23.558-.254.014,1.375Z" transform="translate(201.31 2867.506)" fill="#bababa"/>
    <path id="Path_5659" data-name="Path 5659" d="M334.666,852.555l-20.584-93.308V705.671H219.83v53.576h.148l-22.817,93.308Z" transform="translate(201.965 2855.759)" fill="#9dafc2"/>
    <path id="Path_5660" data-name="Path 5660" d="M281.875,759.249V705.668H246.083v53.581l20.581,93.308h35.794Z" transform="translate(230.969 2855.757)" fill="#8797a7"/>
    <path id="Path_5661" data-name="Path 5661" d="M255.563,759.063V705.488H219.77v53.574h.15L197.1,852.374h35.791l22.817-93.312Z" transform="translate(208.09 2855.638)" fill="#f3f5f8"/>
    <rect id="Rectangle_444" data-name="Rectangle 444" width="102.006" height="8.727" transform="translate(418.446 3545.994)" fill="#09b7b7"/>
    <rect id="Rectangle_445" data-name="Rectangle 445" width="98.279" height="8.907" transform="translate(418.446 3554.722)" fill="#545e68"/>
    <rect id="Rectangle_446" data-name="Rectangle 446" width="19.904" height="4.844" transform="translate(369.286 3605.127)" fill="#ffd527"/>
    <path id="Path_5662" data-name="Path 5662" d="M201.234,823.381a9.351,9.351,0,0,1-9.476,9.224h-12a9.353,9.353,0,0,1-9.479-9.224V743.431a9.355,9.355,0,0,1,9.479-9.225h12a9.353,9.353,0,0,1,9.476,9.225Z" transform="translate(197.075 2874.545)" fill="#4b428a"/>
    <path id="Path_5663" data-name="Path 5663" d="M196.666,823.381a9.354,9.354,0,0,1-9.479,9.224H175.18a9.352,9.352,0,0,1-9.479-9.224V743.431a9.354,9.354,0,0,1,9.479-9.225h12.007a9.356,9.356,0,0,1,9.479,9.225Z" transform="translate(194.908 2874.545)" fill="#b2add7"/>
    <path id="Path_5664" data-name="Path 5664" d="M165.7,743.391V823.34a9.291,9.291,0,0,0,8.458,9.126v-98.2A9.286,9.286,0,0,0,165.7,743.391Z" transform="translate(195.914 2874.585)" fill="#5d52ab"/>
    <path id="Path_5665" data-name="Path 5665" d="M179.184,734.259v98.224a9.294,9.294,0,0,0,8.6-9.138V743.4A9.3,9.3,0,0,0,179.184,734.259Z" transform="translate(202.403 2874.58)" fill="#827cb4"/>
    <rect id="Rectangle_447" data-name="Rectangle 447" width="11.849" height="3.228" transform="translate(373.041 3602.466)" fill="#ffd527"/>
    <rect id="Rectangle_448" data-name="Rectangle 448" width="19.903" height="4.844" transform="translate(322.126 3605.127)" fill="#ffd527"/>
    <path id="Path_5666" data-name="Path 5666" d="M169.638,823.381a9.352,9.352,0,0,1-9.479,9.224h-12a9.35,9.35,0,0,1-9.476-9.224V743.431a9.352,9.352,0,0,1,9.476-9.225h12a9.354,9.354,0,0,1,9.479,9.225Z" transform="translate(182.101 2874.545)" fill="#4b428a"/>
    <path id="Path_5667" data-name="Path 5667" d="M165.067,823.381a9.351,9.351,0,0,1-9.478,9.224H143.583a9.351,9.351,0,0,1-9.478-9.224V743.431a9.354,9.354,0,0,1,9.478-9.225h12.006a9.354,9.354,0,0,1,9.478,9.225Z" transform="translate(179.933 2874.545)" fill="#b2add7"/>
    <path id="Path_5668" data-name="Path 5668" d="M134.105,743.391V823.34a9.291,9.291,0,0,0,8.456,9.126v-98.2A9.285,9.285,0,0,0,134.105,743.391Z" transform="translate(180.691 2874.585)" fill="#5d52ab"/>
    <path id="Path_5669" data-name="Path 5669" d="M147.588,734.259v98.224a9.29,9.29,0,0,0,8.6-9.138V743.4A9.291,9.291,0,0,0,147.588,734.259Z" transform="translate(187.182 2874.58)" fill="#827cb4"/>
    <rect id="Rectangle_449" data-name="Rectangle 449" width="11.848" height="3.228" transform="translate(325.945 3602.466)" fill="#ffd527"/>
    <path id="Path_5670" data-name="Path 5670" d="M327.088,708.982l-3.067-1.143L334.837,664.7l3.067,1.146Z" transform="translate(266.524 2804.287)" fill="#bababa"/>
    <path id="Path_5671" data-name="Path 5671" d="M335.9,701.049l-11.874-35.024,3.037-1.062,11.867,35.021Z" transform="translate(266.527 2802.951)" fill="#bababa"/>
    <path id="Path_5672" data-name="Path 5672" d="M340.744,767.186l-16.476-34.3,2.907-1.681,16.481,34.3Z" transform="translate(265.732 2859.264)" fill="#bababa"/>
    <path id="Path_5673" data-name="Path 5673" d="M342.242,844.977l-3.179-.478,5.577-41.215-18.153-37.379,8.017-33.78,3.111.824-7.723,32.541,16.941,37.794Z" transform="translate(268.148 2864.37)" fill="#bababa"/>
    <path id="Path_5674" data-name="Path 5674" d="M348.307,833.9,329.832,793.4l.068-.527,5.9-44.49,3.174.49-5.835,43.961,18.041,39.531Z" transform="translate(270.35 2875.576)" fill="#bababa"/>
    <path id="Path_5675" data-name="Path 5675" d="M326.554,752.323l-3.038-1.18L336.5,708.01l3.038,1.181Z" transform="translate(266.191 2838.666)" fill="#bababa"/>
    <path id="Path_5676" data-name="Path 5676" d="M335.8,750.835,324.016,708.9l3.066-1.062,11.785,41.934Z" transform="translate(266.521 2839.542)" fill="#bababa"/>
    <path id="Path_5678" data-name="Path 5678" d="M331.142,708.736l1.589.011.29.3,1.3,1.345V664.932l-3.177-.029Z" transform="translate(271.212 2804.422)" fill="#bababa"/>
    <path id="Path_5679" data-name="Path 5679" d="M318.846,643.811v.034h11.991Z" transform="translate(262.162 2790.536)" fill="#bababa"/>
    <path id="Path_5680" data-name="Path 5680" d="M331.142,756.456,347.128,869.4h3.218L334.319,756.191V707.828l-3.177-.027Z" transform="translate(271.212 2839.581)" fill="#bababa"/>
    <path id="Path_5681" data-name="Path 5681" d="M342.414,722.529l44.883.361-44.883-36.079-1.3-1.048-.29-.235-1.589-.008-20.391-.053v2.06l20.391.061h.824l2.353,1.895,38.929,31.3-38.929-.314-3.177-.026-20.391-.164v2.065l20.391.163Z" transform="translate(262.162 2825.979)" fill="#bababa"/>
    <path id="Path_5682" data-name="Path 5682" d="M343.041,679.667l46.071.36-46.071-36.115-1.334-1.045-.3-.234-22.563-.065v2.065l12.306.034,8.624.024.847,0,2.418,1.9L383,677.915l-39.961-.31-3.265-.027-20.93-.165v2.065l20.93.163Z" transform="translate(262.162 2789.804)" fill="#bababa"/>
    <path id="Path_5683" data-name="Path 5683" d="M367.411,923.974H287.76l16.683-114.332,1.177-166.3,45,.366.1,165.2Zm-75.938-3.389h72.233L347.549,809.17V645.5H307.627V809.9l-.022.129Z" transform="translate(241.697 2789.323)" fill="#bababa"/>
    <path id="Path_5684" data-name="Path 5684" d="M289.6,812.733l-1.038-1.8,70.09-38.194,1.033,1.8Z" transform="translate(242.227 2899.915)" fill="#bababa"/>
    <path id="Path_5685" data-name="Path 5685" d="M362.289,812.01l-70.318-36.332,1-1.823,70.318,36.336Z" transform="translate(244.469 2900.648)" fill="#bababa"/>
    <path id="Path_5686" data-name="Path 5686" d="M293.5,790.128l-1.213-1.693,57.2-38.665,1.211,1.694Z" transform="translate(244.68 2884.792)" fill="#bababa"/>
    <path id="Path_5687" data-name="Path 5687" d="M352.8,787.7l-56.674-37.637,1.2-1.7L354,786Z" transform="translate(247.206 2879.181)" fill="#bababa"/>
    <rect id="Rectangle_450" data-name="Rectangle 450" width="43.107" height="3.092" transform="translate(547.705 3589.306) rotate(-1.02)" fill="#bababa"/>
    <path id="Path_5688" data-name="Path 5688" d="M297.289,761.786l-1.148-1.734L343.055,730.6l1.147,1.733Z" transform="translate(247.214 2863.577)" fill="#bababa"/>
    <path id="Path_5689" data-name="Path 5689" d="M345.478,762.279l-47.433-29.512,1.143-1.738,47.43,29.509Z" transform="translate(248.468 2863.942)" fill="#bababa"/>
    <path id="Path_5690" data-name="Path 5690" d="M299.706,742.672l-1.338-1.6,42.73-33.915,1.334,1.6Z" transform="translate(248.68 2844.161)" fill="#bababa"/>
    <path id="Path_5691" data-name="Path 5691" d="M340.608,743.233l-41.857-33.289,1.339-1.6,41.857,33.287Z" transform="translate(248.932 2845.13)" fill="#bababa"/>
    <path id="Path_5692" data-name="Path 5692" d="M299.706,721.248l-1.338-1.6,42.73-33.915,1.334,1.6Z" transform="translate(248.68 2826.133)" fill="#bababa"/>
    <path id="Path_5693" data-name="Path 5693" d="M340.608,721.809l-41.857-33.287,1.339-1.6,41.857,33.285Z" transform="translate(248.932 2827.112)" fill="#bababa"/>
    <path id="Path_5694" data-name="Path 5694" d="M299.706,699.818l-1.338-1.6,42.73-33.914,1.334,1.6Z" transform="translate(248.68 2804.03)" fill="#bababa"/>
    <path id="Path_5695" data-name="Path 5695" d="M340.608,700.383l-41.857-33.288,1.339-1.6,41.857,33.292Z" transform="translate(248.932 2809.094)" fill="#bababa"/>
    <path id="Path_5696" data-name="Path 5696" d="M299.706,678.4l-1.338-1.6L341.1,642.88l1.334,1.6Z" transform="translate(248.68 2789.924)" fill="#bababa"/>
    <path id="Path_5697" data-name="Path 5697" d="M340.608,678.954l-41.857-33.285,1.339-1.6,41.857,33.287Z" transform="translate(248.932 2790.708)" fill="#bababa"/>
    <path id="Path_5698" data-name="Path 5698" d="M405.993,723l-134.012-1.076,44.14-36.411,43.4.124.294.236Zm-128.292-3.1,122.345.985L358.756,687.7l-41.862-.116Z" transform="translate(231.309 2826.023)" fill="#bababa"/>
    <path id="Path_5699" data-name="Path 5699" d="M405.993,680.105l-134.012-1.074,44.14-36.411,43.4.124.294.234ZM277.7,677.011l122.345.983L358.756,644.8l-41.862-.118Z" transform="translate(231.309 2789.752)" fill="#bababa"/>
    <path id="Path_5700" data-name="Path 5700" d="M326.186,672.55l-1.392-1.513,18.943-18.506,1.395,1.515Z" transform="translate(267.033 2796.057)" fill="#bababa"/>
    <path id="Path_5701" data-name="Path 5701" d="M304.936,672.123l-18.012-18.3,1.53-1.424,18.009,18.3Z" transform="translate(242.101 2796.19)" fill="#bababa"/>
    <path id="Path_5702" data-name="Path 5702" d="M326.143,715.8l-1.531-1.428,18.8-19.076,1.529,1.432Z" transform="translate(266.913 2833.561)" fill="#bababa"/>
    <path id="Path_5703" data-name="Path 5703" d="M304.429,715.724l-17.21-19.843,1.616-1.333,17.217,19.847Z" transform="translate(242.295 2832.967)" fill="#bababa"/>
    <rect id="Rectangle_451" data-name="Rectangle 451" width="1.53" height="9.304" transform="translate(645.566 3548.68)" fill="#bababa"/>
    <rect id="Rectangle_452" data-name="Rectangle 452" width="1.527" height="9.304" transform="translate(525.216 3547.657)" fill="#bababa"/>
    <rect id="Rectangle_453" data-name="Rectangle 453" width="1.529" height="9.304" transform="translate(523.765 3467.379)" fill="#bababa"/>
    <rect id="Rectangle_454" data-name="Rectangle 454" width="1.532" height="9.301" transform="translate(645.722 3467.914)" fill="#bababa"/>
    <path id="Path_5704" data-name="Path 5704" d="M280.753,681.087a3.87,3.87,0,0,1-3.91,3.819h0a3.871,3.871,0,0,1-3.924-3.819V670.11a3.87,3.87,0,0,1,3.924-3.816h0a3.869,3.869,0,0,1,3.91,3.816Z" transform="translate(247.62 2809.335)" fill="#ffd527"/>
    <path id="Path_5705" data-name="Path 5705" d="M363.191,724.5a3.868,3.868,0,0,1-3.92,3.813h0a3.866,3.866,0,0,1-3.915-3.813V713.528a3.862,3.862,0,0,1,3.915-3.812h0a3.865,3.865,0,0,1,3.92,3.813Z" transform="translate(287.153 2845.083)" fill="#ffd527"/>
    <path id="Path_5706" data-name="Path 5706" d="M363.286,681.983a3.866,3.866,0,0,1-3.917,3.814h0a3.868,3.868,0,0,1-3.919-3.814V671.008a3.867,3.867,0,0,1,3.919-3.814h0a3.865,3.865,0,0,1,3.917,3.814Z" transform="translate(287.216 2810.076)" fill="#ffd527"/>
    <path id="Path_5707" data-name="Path 5707" d="M280.447,724.466a3.865,3.865,0,0,1-3.919,3.816h0a3.867,3.867,0,0,1-3.917-3.816V713.488a3.869,3.869,0,0,1,3.917-3.813h0a3.868,3.868,0,0,1,3.919,3.813Z" transform="translate(249.38 2844.095)" fill="#ffd527"/>
    <rect id="Rectangle_455" data-name="Rectangle 455" width="15.394" height="151.571" transform="translate(617.088 3558.443)" fill="#bababa"/>
    <rect id="Rectangle_456" data-name="Rectangle 456" width="7.697" height="151.571" transform="translate(624.785 3558.443)" fill="#e8e3e8"/>
    <rect id="Rectangle_457" data-name="Rectangle 457" width="20.456" height="3.072" transform="translate(614.667 3557.166)" fill="#b1acdb"/>
    <rect id="Rectangle_458" data-name="Rectangle 458" width="20.456" height="3.074" transform="translate(614.667 3575.597)" fill="#b1acdb"/>
    <rect id="Rectangle_459" data-name="Rectangle 459" width="20.456" height="3.075" transform="translate(614.667 3594.031)" fill="#b1acdb"/>
    <rect id="Rectangle_460" data-name="Rectangle 460" width="20.456" height="3.071" transform="translate(614.667 3614.003)" fill="#b1acdb"/>
    <rect id="Rectangle_461" data-name="Rectangle 461" width="20.456" height="3.072" transform="translate(614.667 3632.436)" fill="#b1acdb"/>
    <rect id="Rectangle_462" data-name="Rectangle 462" width="20.456" height="3.072" transform="translate(614.667 3650.872)" fill="#b1acdb"/>
    <rect id="Rectangle_463" data-name="Rectangle 463" width="20.456" height="3.071" transform="translate(614.667 3669.307)" fill="#b1acdb"/>
    <rect id="Rectangle_464" data-name="Rectangle 464" width="20.456" height="3.071" transform="translate(614.667 3689.279)" fill="#b1acdb"/>
    <rect id="Rectangle_465" data-name="Rectangle 465" width="15.341" height="5.182" transform="translate(617.141 3560.238)" fill="#515151"/>
    <rect id="Rectangle_466" data-name="Rectangle 466" width="15.341" height="5.181" transform="translate(617.141 3578.671)" fill="#515151"/>
    <rect id="Rectangle_467" data-name="Rectangle 467" width="15.341" height="5.179" transform="translate(617.141 3597.107)" fill="#515151"/>
    <rect id="Rectangle_468" data-name="Rectangle 468" width="15.341" height="5.184" transform="translate(617.141 3617.074)" fill="#515151"/>
    <rect id="Rectangle_469" data-name="Rectangle 469" width="15.341" height="5.187" transform="translate(617.141 3635.507)" fill="#515151"/>
    <rect id="Rectangle_470" data-name="Rectangle 470" width="15.341" height="5.184" transform="translate(617.141 3653.943)" fill="#515151"/>
    <rect id="Rectangle_471" data-name="Rectangle 471" width="15.341" height="5.187" transform="translate(617.141 3672.376)" fill="#515151"/>
    <rect id="Rectangle_678" data-name="Rectangle 678" width="15.341" height="5.187" transform="translate(617.141 3692.349)" fill="#515151"/>
    <rect id="Rectangle_472" data-name="Rectangle 472" width="166.239" height="48.606" transform="translate(285.213 3661.128)" fill="#cdcdcd"/>
    <rect id="Rectangle_473" data-name="Rectangle 473" width="34.588" height="48.606" transform="translate(419.235 3661.128)" fill="#ebebeb"/>
    <rect id="Rectangle_474" data-name="Rectangle 474" width="4.565" height="4.442" transform="translate(300.757 3672.368)" fill="#4c4b4c"/>
    <rect id="Rectangle_475" data-name="Rectangle 475" width="4.567" height="4.442" transform="translate(306.465 3672.368)" fill="#4c4b4c"/>
    <rect id="Rectangle_476" data-name="Rectangle 476" width="4.564" height="4.442" transform="translate(312.176 3672.368)" fill="#4c4b4c"/>
    <rect id="Rectangle_477" data-name="Rectangle 477" width="4.564" height="4.442" transform="translate(317.884 3672.368)" fill="#4c4b4c"/>
    <rect id="Rectangle_478" data-name="Rectangle 478" width="4.565" height="4.442" transform="translate(300.757 3677.926)" fill="#4c4b4c"/>
    <rect id="Rectangle_479" data-name="Rectangle 479" width="4.567" height="4.442" transform="translate(306.465 3677.926)" fill="#4c4b4c"/>
    <rect id="Rectangle_480" data-name="Rectangle 480" width="4.564" height="4.442" transform="translate(312.176 3677.926)" fill="#4c4b4c"/>
    <rect id="Rectangle_481" data-name="Rectangle 481" width="4.564" height="4.442" transform="translate(317.884 3677.926)" fill="#4c4b4c"/>
    <rect id="Rectangle_482" data-name="Rectangle 482" width="4.565" height="4.442" transform="translate(300.757 3683.481)" fill="#4c4b4c"/>
    <rect id="Rectangle_483" data-name="Rectangle 483" width="4.567" height="4.442" transform="translate(306.465 3683.481)" fill="#4c4b4c"/>
    <rect id="Rectangle_484" data-name="Rectangle 484" width="4.564" height="4.442" transform="translate(312.176 3683.481)" fill="#4c4b4c"/>
    <rect id="Rectangle_485" data-name="Rectangle 485" width="4.564" height="4.442" transform="translate(317.884 3683.481)" fill="#4c4b4c"/>
    <rect id="Rectangle_486" data-name="Rectangle 486" width="4.565" height="4.446" transform="translate(300.757 3689.036)" fill="#4c4b4c"/>
    <rect id="Rectangle_487" data-name="Rectangle 487" width="4.567" height="4.446" transform="translate(306.465 3689.036)" fill="#4c4b4c"/>
    <rect id="Rectangle_488" data-name="Rectangle 488" width="4.564" height="4.446" transform="translate(312.176 3689.036)" fill="#4c4b4c"/>
    <rect id="Rectangle_489" data-name="Rectangle 489" width="4.564" height="4.446" transform="translate(317.884 3689.036)" fill="#4c4b4c"/>
    <path id="Path_5708" data-name="Path 5708" d="M124.9,772.567l21.69,14.444V783.68l-17.125-11.113Z" transform="translate(175.859 2899.8)" fill="#fff"/>
    <path id="Path_5709" data-name="Path 5709" d="M124.9,775.919l21.69,15.555H136.316L124.9,783.139Z" transform="translate(175.859 2902.007)" fill="#fff"/>
    <rect id="Rectangle_490" data-name="Rectangle 490" width="4.566" height="4.442" transform="translate(328.975 3672.368)" fill="#4c4b4c"/>
    <rect id="Rectangle_491" data-name="Rectangle 491" width="4.565" height="4.442" transform="translate(334.682 3672.368)" fill="#4c4b4c"/>
    <rect id="Rectangle_492" data-name="Rectangle 492" width="4.565" height="4.442" transform="translate(340.391 3672.368)" fill="#4c4b4c"/>
    <rect id="Rectangle_493" data-name="Rectangle 493" width="4.566" height="4.442" transform="translate(346.097 3672.368)" fill="#4c4b4c"/>
    <rect id="Rectangle_494" data-name="Rectangle 494" width="4.566" height="4.442" transform="translate(328.975 3677.926)" fill="#4c4b4c"/>
    <rect id="Rectangle_495" data-name="Rectangle 495" width="4.565" height="4.442" transform="translate(334.682 3677.926)" fill="#4c4b4c"/>
    <rect id="Rectangle_496" data-name="Rectangle 496" width="4.565" height="4.442" transform="translate(340.391 3677.926)" fill="#4c4b4c"/>
    <rect id="Rectangle_497" data-name="Rectangle 497" width="4.566" height="4.442" transform="translate(346.097 3677.926)" fill="#4c4b4c"/>
    <rect id="Rectangle_498" data-name="Rectangle 498" width="4.566" height="4.442" transform="translate(328.975 3683.481)" fill="#4c4b4c"/>
    <rect id="Rectangle_499" data-name="Rectangle 499" width="4.565" height="4.442" transform="translate(334.682 3683.481)" fill="#4c4b4c"/>
    <rect id="Rectangle_500" data-name="Rectangle 500" width="4.565" height="4.442" transform="translate(340.391 3683.481)" fill="#4c4b4c"/>
    <rect id="Rectangle_501" data-name="Rectangle 501" width="4.566" height="4.442" transform="translate(346.097 3683.481)" fill="#4c4b4c"/>
    <rect id="Rectangle_502" data-name="Rectangle 502" width="4.566" height="4.446" transform="translate(328.975 3689.036)" fill="#4c4b4c"/>
    <rect id="Rectangle_503" data-name="Rectangle 503" width="4.565" height="4.446" transform="translate(334.682 3689.036)" fill="#4c4b4c"/>
    <rect id="Rectangle_504" data-name="Rectangle 504" width="4.565" height="4.446" transform="translate(340.391 3689.036)" fill="#4c4b4c"/>
    <rect id="Rectangle_505" data-name="Rectangle 505" width="4.566" height="4.446" transform="translate(346.097 3689.036)" fill="#4c4b4c"/>
    <path id="Path_5710" data-name="Path 5710" d="M144,772.567l21.689,14.444V783.68l-17.123-11.113Z" transform="translate(184.976 2899.8)" fill="#fff"/>
    <path id="Path_5711" data-name="Path 5711" d="M144,775.919l21.689,15.555H155.416L144,783.139Z" transform="translate(184.976 2902.007)" fill="#fff"/>
    <rect id="Rectangle_506" data-name="Rectangle 506" width="4.566" height="4.442" transform="translate(355.964 3672.368)" fill="#4c4b4c"/>
    <rect id="Rectangle_507" data-name="Rectangle 507" width="4.564" height="4.442" transform="translate(361.673 3672.368)" fill="#4c4b4c"/>
    <rect id="Rectangle_508" data-name="Rectangle 508" width="4.566" height="4.442" transform="translate(367.379 3672.368)" fill="#4c4b4c"/>
    <rect id="Rectangle_509" data-name="Rectangle 509" width="4.565" height="4.442" transform="translate(373.088 3672.368)" fill="#4c4b4c"/>
    <rect id="Rectangle_510" data-name="Rectangle 510" width="4.566" height="4.442" transform="translate(355.964 3677.926)" fill="#4c4b4c"/>
    <rect id="Rectangle_511" data-name="Rectangle 511" width="4.564" height="4.442" transform="translate(361.673 3677.926)" fill="#4c4b4c"/>
    <rect id="Rectangle_512" data-name="Rectangle 512" width="4.566" height="4.442" transform="translate(367.379 3677.926)" fill="#4c4b4c"/>
    <rect id="Rectangle_513" data-name="Rectangle 513" width="4.565" height="4.442" transform="translate(373.088 3677.926)" fill="#4c4b4c"/>
    <rect id="Rectangle_514" data-name="Rectangle 514" width="4.566" height="4.442" transform="translate(355.964 3683.481)" fill="#4c4b4c"/>
    <rect id="Rectangle_515" data-name="Rectangle 515" width="4.564" height="4.442" transform="translate(361.673 3683.481)" fill="#4c4b4c"/>
    <rect id="Rectangle_516" data-name="Rectangle 516" width="4.566" height="4.442" transform="translate(367.379 3683.481)" fill="#4c4b4c"/>
    <rect id="Rectangle_517" data-name="Rectangle 517" width="4.565" height="4.442" transform="translate(373.088 3683.481)" fill="#4c4b4c"/>
    <rect id="Rectangle_518" data-name="Rectangle 518" width="4.566" height="4.446" transform="translate(355.964 3689.036)" fill="#4c4b4c"/>
    <rect id="Rectangle_519" data-name="Rectangle 519" width="4.564" height="4.446" transform="translate(361.673 3689.036)" fill="#4c4b4c"/>
    <rect id="Rectangle_520" data-name="Rectangle 520" width="4.566" height="4.446" transform="translate(367.379 3689.036)" fill="#4c4b4c"/>
    <rect id="Rectangle_521" data-name="Rectangle 521" width="4.565" height="4.446" transform="translate(373.088 3689.036)" fill="#4c4b4c"/>
    <path id="Path_5712" data-name="Path 5712" d="M162.269,772.567l21.689,14.444V783.68l-17.123-11.113Z" transform="translate(193.695 2899.8)" fill="#fff"/>
    <path id="Path_5713" data-name="Path 5713" d="M162.269,775.919l21.689,15.555H173.684l-11.415-8.335Z" transform="translate(193.695 2902.007)" fill="#fff"/>
    <rect id="Rectangle_522" data-name="Rectangle 522" width="4.566" height="4.442" transform="translate(383.65 3672.368)" fill="#4c4b4c"/>
    <rect id="Rectangle_523" data-name="Rectangle 523" width="4.564" height="4.442" transform="translate(389.358 3672.368)" fill="#4c4b4c"/>
    <rect id="Rectangle_524" data-name="Rectangle 524" width="4.566" height="4.442" transform="translate(395.064 3672.368)" fill="#4c4b4c"/>
    <rect id="Rectangle_525" data-name="Rectangle 525" width="4.565" height="4.442" transform="translate(400.774 3672.368)" fill="#4c4b4c"/>
    <rect id="Rectangle_526" data-name="Rectangle 526" width="4.566" height="4.442" transform="translate(383.65 3677.926)" fill="#4c4b4c"/>
    <rect id="Rectangle_527" data-name="Rectangle 527" width="4.564" height="4.442" transform="translate(389.358 3677.926)" fill="#4c4b4c"/>
    <rect id="Rectangle_528" data-name="Rectangle 528" width="4.566" height="4.442" transform="translate(395.064 3677.926)" fill="#4c4b4c"/>
    <rect id="Rectangle_529" data-name="Rectangle 529" width="4.565" height="4.442" transform="translate(400.774 3677.926)" fill="#4c4b4c"/>
    <rect id="Rectangle_530" data-name="Rectangle 530" width="4.566" height="4.442" transform="translate(383.65 3683.481)" fill="#4c4b4c"/>
    <rect id="Rectangle_531" data-name="Rectangle 531" width="4.564" height="4.442" transform="translate(389.358 3683.481)" fill="#4c4b4c"/>
    <rect id="Rectangle_532" data-name="Rectangle 532" width="4.566" height="4.442" transform="translate(395.064 3683.481)" fill="#4c4b4c"/>
    <rect id="Rectangle_533" data-name="Rectangle 533" width="4.565" height="4.442" transform="translate(400.774 3683.481)" fill="#4c4b4c"/>
    <rect id="Rectangle_534" data-name="Rectangle 534" width="4.566" height="4.446" transform="translate(383.65 3689.036)" fill="#4c4b4c"/>
    <rect id="Rectangle_535" data-name="Rectangle 535" width="4.564" height="4.446" transform="translate(389.358 3689.036)" fill="#4c4b4c"/>
    <rect id="Rectangle_536" data-name="Rectangle 536" width="4.566" height="4.446" transform="translate(395.064 3689.036)" fill="#4c4b4c"/>
    <rect id="Rectangle_537" data-name="Rectangle 537" width="4.565" height="4.446" transform="translate(400.774 3689.036)" fill="#4c4b4c"/>
    <path id="Path_5714" data-name="Path 5714" d="M181.01,772.567l21.69,14.444V783.68l-17.123-11.113Z" transform="translate(202.639 2899.8)" fill="#fff"/>
    <path id="Path_5715" data-name="Path 5715" d="M181.01,775.919l21.69,15.555H192.424l-11.414-8.335Z" transform="translate(202.639 2902.007)" fill="#fff"/>
    <path id="Path_5717" data-name="Path 5717" d="M267.229,826.391l-47.649.345-1.169-81.92L266.776,767.2Z" transform="translate(218.668 2881.53)" fill="#c1c1bf"/>
    <rect id="Rectangle_538" data-name="Rectangle 538" width="25.252" height="59.162" transform="translate(481.697 3648.772) rotate(-0.415)" fill="#dbdbdb"/>
    <path id="Path_5719" data-name="Path 5719" d="M217.4,746.593l46.368,23.242.007-5.2L217.1,741.466Z" transform="translate(217.932 2879.437)" fill="#424141"/>
    <path id="Path_8974" data-name="Path 8974" d="M0,0H34.593V5.27L-.039,5.258Z" transform="translate(481.7 3644.002)" fill="#515151"/>
    <path id="Path_5720" data-name="Path 5720" d="M216.6,743.083l32.161-1.871,51.095,26-36.539-.97Z" transform="translate(218.374 2877.929)" fill="#5d52ab"/>
    <rect id="Rectangle_541" data-name="Rectangle 541" width="72.741" height="3.084" transform="translate(436.382 3706.288)" fill="#b2add7"/>
    <rect id="Rectangle_544" data-name="Rectangle 544" width="28.577" height="1.007" transform="translate(448.159 3659.792)" fill="#ddd"/>
    <rect id="Rectangle_545" data-name="Rectangle 545" width="28.577" height="0.377" transform="translate(448.159 3660.422)" fill="#8d8d8e"/>
    <rect id="Rectangle_546" data-name="Rectangle 546" width="28.573" height="1.006" transform="translate(448.198 3698.585)" fill="#ddd"/>
    <rect id="Rectangle_547" data-name="Rectangle 547" width="28.573" height="0.377" transform="translate(448.198 3699.214)" fill="#8d8d8e"/>
    <rect id="Rectangle_548" data-name="Rectangle 548" width="28.573" height="1.007" transform="translate(448.198 3700.603)" fill="#ddd"/>
    <rect id="Rectangle_549" data-name="Rectangle 549" width="28.573" height="0.379" transform="translate(448.198 3701.232)" fill="#8d8d8e"/>
    <rect id="Rectangle_551" data-name="Rectangle 551" width="28.573" height="0.379" transform="translate(448.198 3697.198)" fill="#8d8d8e"/>
    <rect id="Rectangle_552" data-name="Rectangle 552" width="10.139" height="3.984" transform="translate(467.174 3696.929)" fill="#343434"/>
    <rect id="Rectangle_553" data-name="Rectangle 553" width="15.225" height="4.559" transform="translate(462.087 3700.883)" fill="#343434"/>
    <rect id="Rectangle_554" data-name="Rectangle 554" width="22.062" height="3.986" transform="translate(445.826 3696.929)" fill="#494949"/>
    <rect id="Rectangle_555" data-name="Rectangle 555" width="21.966" height="4.517" transform="translate(441.141 3700.876)" fill="#494949"/>
    <rect id="Rectangle_556" data-name="Rectangle 556" width="22.065" height="4.643" transform="translate(436.443 3705.243)" fill="#494949"/>
    <rect id="Rectangle_557" data-name="Rectangle 557" width="22.079" height="1.783" transform="translate(445.825 3699.132)"/>
    <rect id="Rectangle_558" data-name="Rectangle 558" width="22.005" height="1.312" transform="translate(441.138 3703.952)"/>
    <rect id="Rectangle_559" data-name="Rectangle 559" width="20.217" height="4.654" transform="translate(457.096 3705.222)" fill="#343434"/>
    <rect id="Rectangle_561" data-name="Rectangle 561" width="28.56" height="30.772" transform="translate(448.752 3666.157)" fill="#021315"/>
    <rect id="Rectangle_562" data-name="Rectangle 562" width="7.983" height="3.362" transform="translate(469.442 3657.758)" fill="#217482"/>
    <rect id="Rectangle_563" data-name="Rectangle 563" width="29.715" height="3.362" transform="translate(441.747 3657.758)" fill="#ffd527"/>
    <path id="Path_5722" data-name="Path 5722" d="M308.362,826.391l-47.65.345-1.168-81.92L307.907,767.2Z" transform="translate(237.884 2881.53)" fill="#c1c1bf"/>
    <rect id="Rectangle_566" data-name="Rectangle 566" width="25.254" height="59.162" transform="matrix(1, -0.007, 0.007, 1, 542.401, 3648.772)" fill="#dbdbdb"/>
    <path id="Path_5724" data-name="Path 5724" d="M258.553,746.217l46.727,23.662.027-5.595L258.23,741.466Z" transform="translate(237.12 2880.512)" fill="#424141"/>
    <rect id="Rectangle_567" data-name="Rectangle 567" width="31.632" height="5.412" transform="translate(542.401 3644.978)" fill="#515151"/>
    <path id="Path_5725" data-name="Path 5725" d="M258.5,741.258l29.86-.046,48.746,23.043-31.824,0Z" transform="translate(237.108 2880.766)" fill="#5d52ab"/>
    <rect id="Rectangle_569" data-name="Rectangle 569" width="72.741" height="3.084" transform="translate(496.324 3706.288)" fill="#b2add7"/>
    <rect id="Rectangle_572" data-name="Rectangle 572" width="28.575" height="1.007" transform="translate(508.821 3659.792)" fill="#ddd"/>
    <rect id="Rectangle_573" data-name="Rectangle 573" width="28.575" height="0.377" transform="translate(508.821 3660.422)" fill="#8d8d8e"/>
    <rect id="Rectangle_574" data-name="Rectangle 574" width="28.575" height="1.006" transform="translate(508.859 3698.585)" fill="#ddd"/>
    <rect id="Rectangle_575" data-name="Rectangle 575" width="28.575" height="0.377" transform="translate(508.859 3699.214)" fill="#8d8d8e"/>
    <rect id="Rectangle_576" data-name="Rectangle 576" width="28.575" height="1.007" transform="translate(508.859 3700.603)" fill="#ddd"/>
    <rect id="Rectangle_577" data-name="Rectangle 577" width="28.575" height="0.379" transform="translate(508.859 3701.232)" fill="#8d8d8e"/>
    <rect id="Rectangle_579" data-name="Rectangle 579" width="28.575" height="0.379" transform="translate(508.859 3697.198)" fill="#8d8d8e"/>
    <rect id="Rectangle_580" data-name="Rectangle 580" width="10.266" height="3.984" transform="translate(528.1 3696.929)" fill="#343434"/>
    <rect id="Rectangle_581" data-name="Rectangle 581" width="15.424" height="4.559" transform="translate(522.942 3700.883)" fill="#343434"/>
    <rect id="Rectangle_582" data-name="Rectangle 582" width="22.062" height="3.986" transform="translate(506.583 3696.929)" fill="#494949"/>
    <rect id="Rectangle_583" data-name="Rectangle 583" width="21.967" height="4.517" transform="translate(501.9 3700.876)" fill="#494949"/>
    <rect id="Rectangle_584" data-name="Rectangle 584" width="22.941" height="4.643" transform="translate(496.324 3705.243)" fill="#494949"/>
    <rect id="Rectangle_585" data-name="Rectangle 585" width="22.08" height="1.783" transform="translate(506.582 3699.132)"/>
    <rect id="Rectangle_586" data-name="Rectangle 586" width="22.005" height="1.312" transform="translate(501.897 3703.952)"/>
    <rect id="Rectangle_587" data-name="Rectangle 587" width="20.491" height="4.654" transform="translate(517.875 3705.222)" fill="#343434"/>
    <rect id="Rectangle_589" data-name="Rectangle 589" width="29.024" height="30.772" transform="translate(509.39 3666.157)" fill="#021315"/>
    <rect id="Rectangle_590" data-name="Rectangle 590" width="29.717" height="3.362" transform="translate(502.392 3657.758)" fill="#ffd527"/>
    <rect id="Rectangle_591" data-name="Rectangle 591" width="7.982" height="3.362" transform="translate(530.399 3657.758)" fill="#217482"/>
    <path id="Path_5726" data-name="Path 5726" d="M93.263,700.184l-3.118-.912,11-34.429,3.118.915Z" transform="translate(168.533 2804.383)" fill="#bababa"/>
    <path id="Path_5727" data-name="Path 5727" d="M102.024,699.684,90.153,666.127l3.033-1.017,11.869,33.554Z" transform="translate(168.77 2804.558)" fill="#bababa"/>
    <path id="Path_5728" data-name="Path 5728" d="M93.376,751.609l-3.737-1.157,15.97-42.3,3.737,1.158Z" transform="translate(168.431 2839.468)" fill="#bababa"/>
    <path id="Path_5729" data-name="Path 5729" d="M101.926,749.9,90.143,709.022l3.061-1.036L104.99,748.87Z" transform="translate(168.763 2840.561)" fill="#bababa"/>
    <path id="Path_5730" data-name="Path 5730" d="M107.243,643.424l1.3.98v-2.193H84.969v.93l21.984.058Z" transform="translate(165.357 2789.483)" fill="#bababa"/>
    <path id="Path_5731" data-name="Path 5731" d="M97.268,709.111l1.589.011.29.3,1.3,1.352v-45.7l-3.176-.029Z" transform="translate(173.454 2804.518)" fill="#bababa"/>
    <path id="Path_5732" data-name="Path 5732" d="M84.969,643.957v.034H96.961Z" transform="translate(165.357 2790.632)" fill="#bababa"/>
    <path id="Path_5733" data-name="Path 5733" d="M108.541,721.987l44.881.355-44.881-35.409-1.3-1.028-.29-.23-1.589-.008-20.4-.052v1.069l20.4,1.014h.821l2.355,1.859,38.928,30.715-38.928-.308-3.176-.025-20.4-.161V721.8l20.4.161Z" transform="translate(165.357 2826.928)" fill="#bababa"/>
    <path id="Path_5734" data-name="Path 5734" d="M109.167,680.12l46.071.363-46.071-36.414-1.334-1.054-.3-.236-22.566-.065V644.8l12.307.034,8.627.024.844,0,2.421,1.912,39.961,31.585-39.961-.313-3.265-.028-20.933-.166v2.082l20.933.164Z" transform="translate(165.357 2789.814)" fill="#bababa"/>
    <rect id="Rectangle_592" data-name="Rectangle 592" width="1.526" height="9.304" transform="translate(175.057 3548.005)" fill="#bababa"/>
    <rect id="Rectangle_593" data-name="Rectangle 593" width="1.527" height="9.304" transform="translate(175.565 3468.325)" fill="#bababa"/>
    <path id="Path_13114" data-name="Path 13114" d="M289.407,776.924c-63.381-1.81-104.8-26.56-128.386-48.606-25.594-23.927-36.33-47.787-36.44-48.025l1-.963c.1.236,10.739,23.839,36.144,47.562,23.451,21.9,64.621,47.267,127.681,49.067Z" transform="translate(50.984 2813.541)" fill="#bababa"/>
    <path id="Path_5735" data-name="Path 5735" d="M45.88,682.232a3.87,3.87,0,0,1-3.915,3.819h0a3.871,3.871,0,0,1-3.92-3.819V671.255a3.869,3.869,0,0,1,3.92-3.814h0a3.868,3.868,0,0,1,3.915,3.814Z" transform="translate(134.463 2809.382)" fill="#ffd527"/>
    <path id="Path_5736" data-name="Path 5736" d="M45.569,725.612a3.864,3.864,0,0,1-3.917,3.816h0a3.864,3.864,0,0,1-3.914-3.816V714.634a3.867,3.867,0,0,1,3.914-3.813h0a3.867,3.867,0,0,1,3.917,3.813Z" transform="translate(134.262 2843.328)" fill="#ffd527"/>
    <path id="Path_5737" data-name="Path 5737" d="M105.713,762.513,90.392,732.807l2.708-1.456,15.32,29.706Z" transform="translate(168.514 2863.983)" fill="#bababa"/>
    <path id="Path_5738" data-name="Path 5738" d="M108.627,836.319l-3.227-.44,5.671-38-18.46-34.463,8.152-31.144,3.165.759-7.854,30,17.768,34.461Z" transform="translate(170.388 2873.271)" fill="#bababa"/>
    <path id="Path_5739" data-name="Path 5739" d="M113.984,842.418,95.955,799.853l.07-.554,5.757-46.766,3.1.515-5.692,46.21L116.8,840.81Z" transform="translate(172.59 2873.932)" fill="#bababa"/>
    <path id="Path_5740" data-name="Path 5740" d="M97.268,753.754l15.984,106.329h3.216L100.444,753.5V707.973l-3.176-.026Z" transform="translate(173.454 2849.138)" fill="#bababa"/>
    <path id="Path_5741" data-name="Path 5741" d="M133.535,924.062H53.886L70.572,809.73V642.2h46.281V809Zm-75.941-3.389H129.83L113.673,809.258V645.586H73.751v164.4l-.022.129Z" transform="translate(144.893 2789.478)" fill="#bababa"/>
    <path id="Path_5742" data-name="Path 5742" d="M55.729,812.88l-1.038-1.8,70.087-38.194,1.035,1.8Z" transform="translate(145.423 2900.011)" fill="#bababa"/>
    <path id="Path_5743" data-name="Path 5743" d="M128.415,812.156,58.1,775.825l1-1.824,70.317,36.336Z" transform="translate(147.664 2900.744)" fill="#bababa"/>
    <path id="Path_5744" data-name="Path 5744" d="M59.625,790.274l-1.208-1.692,57.2-38.665,1.21,1.694Z" transform="translate(147.876 2884.888)" fill="#bababa"/>
    <path id="Path_5745" data-name="Path 5745" d="M118.93,787.85,62.251,750.214l1.2-1.7,56.676,37.63Z" transform="translate(150.401 2879.277)" fill="#bababa"/>
    <rect id="Rectangle_594" data-name="Rectangle 594" width="43.111" height="3.092" transform="translate(217.026 3589.537) rotate(-0.99)" fill="#bababa"/>
    <path id="Path_5746" data-name="Path 5746" d="M63.413,761.932,62.268,760.2l46.915-29.452,1.143,1.733Z" transform="translate(150.411 2863.673)" fill="#bababa"/>
    <path id="Path_5747" data-name="Path 5747" d="M111.6,762.426,64.169,732.914l1.145-1.738,47.43,29.509Z" transform="translate(151.663 2864.039)" fill="#bababa"/>
    <path id="Path_5748" data-name="Path 5748" d="M65.831,742.818l-1.339-1.6L107.225,707.3l1.336,1.6Z" transform="translate(151.875 2844.257)" fill="#bababa"/>
    <path id="Path_5749" data-name="Path 5749" d="M106.731,743.379,64.875,710.09l1.339-1.6,41.856,33.287Z" transform="translate(152.128 2845.226)" fill="#bababa"/>
    <path id="Path_5750" data-name="Path 5750" d="M65.831,721.395l-1.339-1.6,42.734-33.915,1.336,1.6Z" transform="translate(151.875 2826.229)" fill="#bababa"/>
    <path id="Path_5751" data-name="Path 5751" d="M106.731,721.955,64.875,688.668l1.339-1.6,41.856,33.285Z" transform="translate(152.128 2827.208)" fill="#bababa"/>
    <path id="Path_5752" data-name="Path 5752" d="M65.831,699.964l-1.339-1.6,42.734-33.914,1.336,1.6Z" transform="translate(151.875 2804.126)" fill="#bababa"/>
    <path id="Path_5753" data-name="Path 5753" d="M106.731,700.529,64.875,667.241l1.339-1.6,41.856,33.292Z" transform="translate(152.128 2809.19)" fill="#bababa"/>
    <path id="Path_5754" data-name="Path 5754" d="M65.831,678.542l-1.339-1.6,42.734-33.915,1.336,1.6Z" transform="translate(151.875 2790.02)" fill="#bababa"/>
    <path id="Path_5755" data-name="Path 5755" d="M106.731,679.1,64.875,645.815l1.339-1.6L108.07,677.5Z" transform="translate(152.128 2790.804)" fill="#bababa"/>
    <path id="Path_5756" data-name="Path 5756" d="M172.118,723.15,38.106,722.074l44.139-36.411,43.406.124.289.235Zm-128.29-3.1,122.342.985-41.288-33.19-41.864-.118Z" transform="translate(134.504 2826.119)" fill="#bababa"/>
    <path id="Path_5757" data-name="Path 5757" d="M172.118,680.252,38.106,679.177l44.139-36.411,43.406.125.289.235Zm-128.29-3.095,122.342.983-41.288-33.192-41.864-.118Z" transform="translate(134.504 2789.848)" fill="#bababa"/>
    <path id="Path_5758" data-name="Path 5758" d="M92.376,672.476l-1.458-1.5,19.863-18.3,1.458,1.5Z" transform="translate(169.273 2796.374)" fill="#bababa"/>
    <path id="Path_5759" data-name="Path 5759" d="M71.059,672.269l-18.009-18.3,1.535-1.424,18,18.3Z" transform="translate(144.343 2796.286)" fill="#bababa"/>
    <path id="Path_5760" data-name="Path 5760" d="M92.265,715.944l-1.527-1.428,18.8-19.076,1.53,1.432Z" transform="translate(169.155 2833.657)" fill="#bababa"/>
    <rect id="Rectangle_595" data-name="Rectangle 595" width="1.53" height="9.304" transform="translate(313.933 3549.027)" fill="#f6a72e"/>
    <rect id="Rectangle_596" data-name="Rectangle 596" width="1.53" height="9.971" transform="translate(315.748 3470.1)" fill="#ffd527"/>
    <path id="Path_5762" data-name="Path 5762" d="M129.318,725.65a3.869,3.869,0,0,1-3.924,3.813h0a3.868,3.868,0,0,1-3.915-3.813V714.674a3.865,3.865,0,0,1,3.915-3.813h0a3.866,3.866,0,0,1,3.924,3.813Z" transform="translate(189.393 2844.315)" fill="#ffd527"/>
    <path id="Path_5765" data-name="Path 5765" d="M211.451,773.955c-33.4-1.755-55.232-25.752-67.664-47.127a196.483,196.483,0,0,1-19.205-46.564l.527-.934a194.225,194.225,0,0,0,19.05,46.115c12.36,21.234,34.058,45.829,67.293,47.574Z" transform="translate(191.435 2816.82)" fill="#bababa"/>
    <path id="Path_5763" data-name="Path 5763" d="M130.412,683.129a3.87,3.87,0,0,1-3.919,3.814h0a3.868,3.868,0,0,1-3.919-3.814V672.154a3.867,3.867,0,0,1,3.919-3.814h0a3.869,3.869,0,0,1,3.919,3.814Z" transform="translate(190.115 2811.081)" fill="#ffd527"/>
    <rect id="Rectangle_597" data-name="Rectangle 597" width="440.825" height="12.339" transform="translate(194.298 3708.522)" fill="#5d52ab"/>
    <path id="Path_13115" data-name="Path 13115" d="M234.685,773.955c-42.338-1.755-70-25.752-85.762-47.127a174.526,174.526,0,0,1-24.342-46.564l.668-.934a172.567,172.567,0,0,0,24.144,46.115c15.665,21.234,43.167,45.829,85.291,47.574Z" transform="translate(51.09 2889.38)" fill="#bababa"/>
    <path id="Path_13116" data-name="Path 13116" d="M211.451,773.955c-33.4-1.755-55.232-25.752-67.664-47.127a196.483,196.483,0,0,1-19.205-46.564l.527-.934a194.225,194.225,0,0,0,19.05,46.115c12.36,21.234,34.058,45.829,67.293,47.574Z" transform="translate(190.481 2889.38)" fill="#bababa"/>
  </g>
</svg>
