<svg xmlns="http://www.w3.org/2000/svg" width="58.519" height="81.4" viewBox="0 0 58.519 81.4">
  <path id="Path_123" data-name="Path 123" d="M94.3,71.4a10.757,10.757,0,0,0-5.4-8.2,51.1,51.1,0,0,0-4.7-2.1c.2-.1.3-.3.4-.3,7.9-4.1,7.2-16.3,1.5-20.5a19.773,19.773,0,0,0-7.7-3.4c-2-.4-3.9-.7-6-1.1,0-3.5.1-8.5.1-12.4H65c0,3.8-.1,8.7-.1,12.1H59c0-3.5,0-8.3.1-12.1H51.7c0,4-.1,8.8-.1,12.3-5.1,0-10-.1-15-.1,0,2.7,0,5.3-.1,7.9h3a26.2,26.2,0,0,1,2.8.1q3.9.3,3.9,4.2l-.3,31.9c0,2.3-1,3.3-3.3,3.3h-5c-.5,3-1,5.9-1.6,8.9,5,.1,10,.1,15,.2,0,3.8,0,8.7-.1,12.7h7.4c0-4,.1-8.7.1-12.5,2.1.1,4,.1,5.9.2,0,3.8-.1,8.4-.1,12.3h7.4c0-4,.1-8.7.1-12.4a3.536,3.536,0,0,0,.6-.1c3.5-.6,7.2-.9,10.6-1.7,4.5-1.1,8.1-3.7,9.9-8.2a19.029,19.029,0,0,0,1.5-11ZM59,44.3c4.6,0,9.1-.4,13.4,1.5a6.108,6.108,0,0,1,4,6.3,6.588,6.588,0,0,1-4.8,6c-4.1,1.3-8.3,1.3-12.7,1.1,0-5,.1-9.8.1-14.9ZM75.2,81.4c-4.1,1.8-8.5,1.8-12.8,1.9-1.2,0-2.4-.1-3.8-.1.1-5.5.1-10.9.2-16.4,5.6,0,11.2-.4,16.5,1.9a6.622,6.622,0,0,1,4.3,6.4c0,3.1-1.6,5.1-4.4,6.3Z" transform="translate(-36 -23.4)" fill="#fff"/>
</svg>
